<svg xmlns="http://www.w3.org/2000/svg" id="Layer_1" width="215" height="215" version="1.1"><defs><style>.st0{fill:#ffe200}.st2{fill:#fff}</style></defs><path d="M0 0h215v215H0z"/><path d="M24.028 117.648c2.54 0 3.845 1.52 3.845 4.18v.52h-2.468v-.688c0-1.186-.475-1.639-1.306-1.639-.831 0-1.306.453-1.306 1.64 0 1.21.522 2.112 2.231 3.607 2.185 1.923 2.873 3.3 2.873 5.199 0 2.659-1.33 4.177-3.893 4.177s-3.894-1.518-3.894-4.177v-1.021h2.47v1.188c0 1.186.522 1.613 1.352 1.613.831 0 1.353-.427 1.353-1.613 0-1.211-.522-2.113-2.23-3.608-2.185-1.923-2.873-3.301-2.873-5.199 0-2.66 1.305-4.18 3.846-4.18ZM36.821 125.6h-.047l-.926 8.856h-3.585l-1.851-16.618h2.54l1.377 13.105h.047l1.234-13.105h2.517l1.281 13.198h.048l1.33-13.198h2.278l-1.851 16.618h-3.466l-.926-8.855ZM45.983 117.838h2.611v16.618h-2.611v-16.618ZM57.613 129.636h.048l1.757-11.798h3.631v16.618h-2.468v-11.917h-.048l-1.756 11.917h-2.47l-1.898-11.752h-.048v11.752h-2.279v-16.618h3.632l1.9 11.798ZM72.068 129.636h.048l1.757-11.798h3.631v16.618h-2.468v-11.917h-.048l-1.757 11.917h-2.468l-1.9-11.752h-.047v11.752h-2.279v-16.618h3.632l1.9 11.798ZM81.016 117.838h2.611v16.618h-2.611v-16.618ZM89.513 122.42h-.048v12.036h-2.35v-16.618h3.276l2.635 9.946h.048v-9.946H95.4v16.618h-2.682l-3.205-12.036ZM102.805 125.196h3.656v5.27c0 2.66-1.33 4.178-3.893 4.178-2.564 0-3.893-1.518-3.893-4.177v-8.64c0-2.66 1.329-4.18 3.893-4.18s3.893 1.52 3.893 4.18v1.614h-2.469v-1.78c0-1.187-.522-1.64-1.353-1.64-.83 0-1.353.453-1.353 1.64v8.973c0 1.186.523 1.613 1.353 1.613.831 0 1.353-.427 1.353-1.613v-3.062h-1.187v-2.376ZM152.857 119.928c2.018 0 2.47-.974 2.873-2.09h1.757v16.618h-2.612v-12.677h-2.018v-1.851ZM168.175 130.325c0 2.801-1.282 4.32-3.988 4.32-2.564 0-3.893-1.519-3.893-4.178v-.426h2.469v.593c0 1.186.522 1.637 1.353 1.637.925 0 1.447-.451 1.447-2.042v-3.015h-.046c-.451.95-1.211 1.449-2.375 1.449-1.922 0-2.896-1.353-2.896-3.797v-3.039c0-2.66 1.4-4.18 3.964-4.18 2.565 0 3.965 1.52 3.965 4.18v8.498Zm-2.612-5.673v-2.992c0-1.186-.522-1.613-1.353-1.613-.83 0-1.353.427-1.353 1.613v2.992c0 1.186.523 1.637 1.353 1.637.831 0 1.353-.451 1.353-1.637ZM178.056 117.838v2.279l-3.845 14.339h-2.612l3.822-14.244h-5.198v-2.374h7.833ZM181.036 119.928c2.018 0 2.47-.974 2.873-2.09h1.757v16.618h-2.612v-12.677h-2.018v-1.851Z" class="st2"/><path d="m130.655 137.094-.153-4.436 6.272 1.797-.841-2.486 6.118-5.43-1.759-.535 1.759-4.284-4.206.612v-2.218l-4.972 4.36 2.218-7.725-3.059 1.071-2.218-5.201-2.218 5.201-3.06-1.071 2.219 7.725-4.972-4.36v2.218l-4.207-.612 1.76 4.284-1.76.535 6.119 5.43-.841 2.486 6.272-1.797-.153 4.436h1.682z" style="fill-rule:evenodd;fill:#ffe200"/><path d="M56.848 108.91c-3.077 0-5.922.019-8.766-.034-.247-.004-.606-.44-.708-.743a685.779 685.779 0 0 1-3.505-10.642c-.22-.69-.552-.99-1.298-.982a586.61 586.61 0 0 1-9.281 0c-.683-.004-.955.272-1.084.934-.697 3.578-2.373 11.429-2.373 11.429H21.22s4.541-23.385 5.438-27.82c.255-1.263.492-1.435 1.805-1.435 8.363 0 16.726-.02 25.088.059 1.505.014 3.04.338 4.498.742 2.327.644 3.6 2.916 3.224 5.671-.212 1.56-.58 3.106-.984 4.63-.877 3.311-3.345 4.771-6.505 5.372-.295.056-.592.103-1.036.18l4.099 12.639ZM34.656 85.442c-.289 1.37-.579 2.856-.921 4.329-.197.847.125 1.056.935 1.05 4.68-.033 9.359-.019 14.038-.038.608-.003 1.252-.003 1.811-.197.44-.153 1.007-.541 1.113-.933.29-1.073.405-2.2.511-3.311.054-.565-.3-.9-.907-.9h-16.58ZM73.391 108.852h-9.437l5.878-29.189h9.413l-2.148 10.813c.358.052.67.135.984.136 5.606.008 11.212-.003 16.818.018.685.003.926-.214 1.058-.907.633-3.337 1.345-6.66 2.042-10.051h9.417l-5.884 29.195h-9.41L94.62 96.32c-.39-.022-.71-.057-1.03-.057-5.484.002-10.968.034-16.45-.013-1.007-.01-1.327.415-1.494 1.274-.73 3.755-1.49 7.504-2.254 11.328ZM196.742 79.607l-1.147 5.638H194.4c-6.462.027-12.923.05-19.385.085-1.01.005-2.019.072-3.028.102-1.831.054-2.566.58-2.933 2.362-.948 4.612-1.842 9.235-2.747 13.855-.137.701.25 1.149.89 1.264.987.179 1.992.348 2.99.352 6.983.027 13.965.012 20.947.01h.837l-1.13 5.598c-.356.018-.656.045-.956.045-8.606 0-17.211-.004-25.816-.007-1.817 0-3.597-.213-5.266-.976-3.28-1.5-3.549-3.537-3.052-6.348.85-4.81 1.956-9.576 2.842-14.38.753-4.082 3.576-6.95 7.732-7.158 5.65-.285 11.312-.357 16.97-.444 4.133-.063 8.268-.003 12.403.002h1.043ZM133.634 89.374c-.553.628-1.055 1.188-1.545 1.758-4.91 5.72-9.812 11.448-14.749 17.146-.289.334-.853.598-1.294.606-3.063.054-6.126.033-9.19.032-.177 0-.355-.028-.712-.06.356-.463.617-.846.919-1.193 6.554-7.53 13.113-15.055 19.672-22.582 1.384-1.588 2.8-3.15 4.139-4.776.441-.536.895-.713 1.559-.702 2.02.032 4.044.04 6.064-.009.65-.015.974.2 1.238.774 3.126 6.795 6.275 13.58 9.415 20.368 1.236 2.672 2.466 5.347 3.749 8.129-.403.02-.72.052-1.037.052-2.88.001-5.76-.023-8.638.01-.652.007-.959-.203-1.221-.8-2.618-5.956-5.27-11.897-7.914-17.841-.121-.272-.266-.534-.455-.912Z" class="st0"/></svg>